<svg viewBox="0 0 64 64" xmlns="http://www.w3.org/2000/svg">
  <!-- Outer circle representing unity -->
  <circle cx="32" cy="32" r="30" fill="none" stroke="#3b82f6" stroke-width="2" opacity="0.8"/>
  
  <!-- Stars for outer space exploration -->
  <circle cx="20" cy="16" r="1.5" fill="#60a5fa"/>
  <circle cx="44" cy="12" r="1" fill="#93c5fd"/>
  <circle cx="50" cy="26" r="1.2" fill="#dbeafe"/>
  <circle cx="14" cy="38" r="1" fill="#bfdbfe"/>
  <circle cx="48" cy="48" r="1.3" fill="#60a5fa"/>
  
  <!-- Central mandala/consciousness symbol -->
  <g transform="translate(32, 32)">
    <!-- Inner meditation circle -->
    <circle r="8" fill="none" stroke="#10b981" stroke-width="1.5" opacity="0.9"/>
    
    <!-- Petals representing consciousness expansion -->
    <g opacity="0.7">
      <path d="M 0,-8 Q 4,-12 8,-8 Q 4,-4 0,-8" fill="#34d399"/>
      <path d="M 5.66,-5.66 Q 9.66,-9.66 11.31,-5.66 Q 7.31,-1.66 5.66,-5.66" fill="#34d399" transform="rotate(45)"/>
      <path d="M 8,0 Q 12,-4 8,8 Q 4,4 8,0" fill="#34d399" transform="rotate(90)"/>
      <path d="M 5.66,5.66 Q 9.66,1.66 5.66,11.31 Q 1.66,7.31 5.66,5.66" fill="#34d399" transform="rotate(135)"/>
      <path d="M 0,8 Q -4,12 -8,8 Q -4,4 0,8" fill="#34d399" transform="rotate(180)"/>
      <path d="M -5.66,5.66 Q -9.66,9.66 -11.31,5.66 Q -7.31,1.66 -5.66,5.66" fill="#34d399" transform="rotate(225)"/>
      <path d="M -8,0 Q -12,4 -8,-8 Q -4,-4 -8,0" fill="#34d399" transform="rotate(270)"/>
      <path d="M -5.66,-5.66 Q -9.66,-1.66 -5.66,-11.31 Q -1.66,-7.31 -5.66,-5.66" fill="#34d399" transform="rotate(315)"/>
    </g>
    
    <!-- Central dot for focus/unity point -->
    <circle r="2" fill="#6366f1"/>
  </g>
  
  <!-- Orbital paths suggesting exploration -->
  <ellipse cx="32" cy="32" rx="22" ry="12" fill="none" stroke="#8b5cf6" stroke-width="1" opacity="0.4" transform="rotate(15 32 32)"/>
  <ellipse cx="32" cy="32" rx="18" ry="26" fill="none" stroke="#8b5cf6" stroke-width="1" opacity="0.4" transform="rotate(-30 32 32)"/>
</svg>
